#!OML:ASF Y:\EmotionMaleHayes\Project 1\Capture day 1\Session 1\Male1.ASF
:FULLY-SPECIFIED
:DEGREES
246
root 47.3498 17.3023 -2.345 120.762 71.5593 116.269
lowerback 8.04188 -4.84808 -18.8219
upperback 0.322078 -8.03062 -2.25128
thorax -1.93462 -3.7344 8.61541
lowerneck -32.947 5.51618 4.02405
upperneck 22.7374 6.96071 -3.81912
head 13.3429 2.8244 -0.737956
rclavicle -2.03754e-014 3.24019e-014
rhumerus -96.9748 15.9871 -86.2034
rradius 103.72
rwrist -22.5983
rhand -24.1715 -17.0407
rfingers 7.12502
rthumb 2.31169 -47.0079
lclavicle -2.03754e-014 3.24019e-014
lhumerus -42.0323 -38.6188 98.3807
lradius 115.5
lwrist 6.61101
lhand -42.6906 -48.5999
lfingers 7.12502
lthumb -15.5603 -19.2059
rfemur -26.1676 -15.8242 3.5924
rtibia 14.6339
rfoot -178.195 -192.894
rtoes 28.1351
lfemur 28.2492 0.343438 -31.1572
ltibia 54.8947
lfoot -180.044 184.521
ltoes -10.8839
247
root 47.7901 17.1418 -2.37432 118.949 71.1455 114.985
lowerback 8.5564 -4.48216 -19.1695
upperback 0.214472 -7.70936 -2.41253
thorax -2.41334 -3.51362 8.68888
lowerneck -32.0417 5.19939 3.3953
upperneck 22.3597 6.62078 -3.12533
head 12.954 2.7449 -0.452484
rclavicle -2.62396e-014 -1.72943e-014
rhumerus -96.0693 16.1478 -85.8987
rradius 103.862
rwrist -22.3349
rhand -24.7738 -16.6486
rfingers 7.12502
rthumb 1.73003 -46.6213
lclavicle -2.62396e-014 -1.72943e-014
lhumerus -44.3624 -37.752 99.9627
lradius 114.481
lwrist 6.12398
lhand -42.325 -47.0293
lfingers 7.12502
lthumb -15.2083 -17.6083
rfemur -25.8108 -16.5743 3.12756
rtibia 16.798
rfoot -178.187 -192.282
rtoes 31.6243
lfemur 28.2728 0.397322 -31.7774
ltibia 58.495
lfoot -180.436 184.219
ltoes -11.0608
248
root 48.2315 16.9744 -2.40039 116.927 70.763 113.599
lowerback 9.17021 -4.03386 -19.6043
upperback 0.135345 -7.31315 -2.52645
thorax -2.92486 -3.25182 8.85859
lowerneck -31.415 4.94074 3.29359
upperneck 22.3916 6.39469 -3.31212
head 12.8518 2.62089 -0.564172
rclavicle 1.963e-014 2.8625e-014
rhumerus -95.0839 16.3435 -85.5205
rradius 103.86
rwrist -21.9169
rhand -25.5282 -16.0756
rfingers 7.12502
rthumb 1.00137 -46.0529
lclavicle 1.963e-014 2.8625e-014
lhumerus -46.5082 -36.6916 101.428
lradius 113.301
lwrist 5.71015
lhand -41.6492 -45.0291
lfingers 7.12502
lthumb -14.5572 -15.5599
rfemur -25.5352 -18.1143 3.06161
rtibia 19.9804
rfoot -178.605 -188.611
rtoes 45.1631
lfemur 28.3807 0.553476 -32.3326
ltibia 61.9698
lfoot -180.843 184.121
ltoes -10.9494
249
root 48.666 16.8023 -2.42379 115.439 71.0517 112.706
lowerback 9.61071 -3.58189 -19.3929
upperback 0.141293 -6.8045 -2.45845
thorax -3.3308 -2.96854 8.84727
lowerneck -30.8315 4.66149 3.06834
upperneck 22.3424 6.12313 -3.29103
head 12.7084 2.49633 -0.582917
rclavicle -2.09221e-014 -4.69132e-014
rhumerus -93.7441 16.5763 -85.1481
rradius 103.647
rwrist -21.5463
rhand -25.7131 -15.7122
rfingers 7.12502
rthumb 0.822884 -45.6903
lclavicle -2.09221e-014 -4.69132e-014
lhumerus -48.166 -35.4785 102.409
lradius 112.044
lwrist 6.04575
lhand -40.6454 -43.7918
lfingers 7.12502
lthumb -13.5899 -14.2554
rfemur -25.1224 -17.9805 3.39172
rtibia 22.1019
rfoot -181.023 -185.244
rtoes 27.1954
lfemur 28.3796 0.889663 -31.9924
ltibia 65.3236
lfoot -181.26 183.92
ltoes -10.798
250
root 49.1062 16.6103 -2.41753 114.962 73.7564 112.978
lowerback 10.0625 -2.99151 -17.2387
upperback 0.120288 -5.91644 -1.70555
thorax -3.99185 -2.53511 8.50553
lowerneck -29.8827 4.60681 3.04037
upperneck 22.0896 6.11016 -3.3847
head 12.4386 2.49488 -0.631707
rclavicle 6.21202e-015 8.46823e-014
rhumerus -92.4344 16.901 -84.8412
rradius 103.454
rwrist -21.1723
rhand -25.6078 -15.576
rfingers 7.12502
rthumb 0.924509 -45.5537
lclavicle 6.21202e-015 8.46823e-014
lhumerus -49.9465 -33.9107 103.438
lradius 110.656
lwrist 6.53697
lhand -39.5142 -42.3868
lfingers 7.12502
lthumb -12.4994 -12.7807
rfemur -24.7196 -15.1674 6.86554
rtibia 24.5611
rfoot -184.99 -186.333
rtoes 23.0512
lfemur 28.6091 1.84914 -28.4017
ltibia 68.2808
lfoot -181.128 183.037
ltoes -9.82357
251
root 49.4863 16.4231 -2.44169 109.57 72.8034 107.949
lowerback 10.6079 -2.21781 -18.7582
upperback 0.240533 -5.16197 -2.00268
thorax -4.27184 -2.10069 8.9825
lowerneck -29.3524 4.63878 3.42605
upperneck 21.541 6.16777 -4.0418
head 12.17 2.47693 -0.942356
rclavicle 1.77912e-014 -1.27222e-014
rhumerus -90.3493 16.9556 -84.3189
rradius 103.209
rwrist -20.6064
rhand -25.5052 -15.8325
rfingers 7.12502
rthumb 1.02363 -45.8098
lclavicle 1.77912e-014 -1.27222e-014
lhumerus -50.7615 -32.4781 103.965
lradius 108.968
lwrist 6.89266
lhand -38.4739 -40.5586
lfingers 7.12502
lthumb -11.4963 -10.8939
rfemur -25.5656 -13.1771 5.5696
rtibia 29.4783
rfoot -189.532 -186.657
rtoes 26.4502
lfemur 27.8211 2.91612 -29.7361
ltibia 71.8932
lfoot -181.808 182.403
ltoes -10.0826
252
root 49.8565 16.2566 -2.49387 109.704 75.5152 108.524
lowerback 11.6867 -1.73839 -15.5891
upperback 0.00604582 -4.40059 -1.38299
thorax -5.53307 -1.69871 7.93993
lowerneck -28.4939 4.46617 3.42525
upperneck 21.1004 5.96463 -4.1471
head 11.84 2.3932 -1.03203
rclavicle 3.46382e-014 2.74323e-014
rhumerus -88.7137 16.9834 -84.024
rradius 102.806
rwrist -19.8808
rhand -25.3733 -16.2915
rfingers 7.12502
rthumb 1.15102 -46.2682
lclavicle 3.46382e-014 2.74323e-014
lhumerus -52.1151 -30.7157 104.762
lradius 107.061
lwrist 7.27969
lhand -37.4458 -38.5912
lfingers 7.12502
lthumb -10.5047 -8.87366
rfemur -26.4828 -10.9393 9.30227
rtibia 33.2847
rfoot -191.939 -188.062
rtoes 23.4266
lfemur 27.3178 3.67454 -26.5684
ltibia 74.9424
lfoot -182.159 180.988
ltoes -9.71599
